<svg width="28" height="29" viewBox="0 0 28 29" fill="none" xmlns="http://www.w3.org/2000/svg">
<path d="M22.5206 6.31258C20.9235 5.5821 19.2272 5.04971 17.4567 4.75256C17.2339 5.13639 16.9862 5.65639 16.8128 6.06497C14.9297 5.79258 13.0601 5.79258 11.203 6.06497C11.0296 5.65639 10.7696 5.13639 10.5591 4.75256C8.77626 5.04971 7.08004 5.5821 5.49401 6.31258C2.28728 11.0422 1.4206 15.6603 1.85395 20.2166C3.9835 21.7643 6.0388 22.7052 8.05818 23.3244C8.55343 22.6558 8.99915 21.9376 9.38297 21.1824C8.65248 20.91 7.95913 20.5757 7.29054 20.1795C7.46389 20.0557 7.63723 19.9196 7.79819 19.7833C11.8344 21.6282 16.2063 21.6282 20.1929 19.7833C20.3663 19.9196 20.5273 20.0557 20.7006 20.1795C20.032 20.5757 19.3387 20.91 18.6082 21.1824C18.992 21.9376 19.4377 22.6558 19.933 23.3244C21.9511 22.7052 24.0187 21.7643 26.1372 20.2166C26.6695 14.9423 25.294 10.3613 22.5206 6.31258ZM9.94011 17.4061C8.72675 17.4061 7.73625 16.3042 7.73625 14.9547C7.73625 13.6051 8.70198 12.5032 9.94011 12.5032C11.1658 12.5032 12.1687 13.6051 12.1439 14.9547C12.1439 16.3042 11.1658 17.4061 9.94011 17.4061ZM18.0759 17.4061C16.8624 17.4061 15.8706 16.3042 15.8706 14.9547C15.8706 13.6051 16.8377 12.5032 18.0759 12.5032C19.3016 12.5032 20.3044 13.6051 20.2796 14.9547C20.2796 16.3042 19.3139 17.4061 18.0759 17.4061Z" fill="white"/>
</svg>
