{"accessors" : [{"bufferView" : 0, "byteOffset" : 0, "componentType" : 5123, "count" : 12, "type" : "SCALAR", "max" : [11], "min" : [0]}, {"bufferView" : 1, "byteOffset" : 0, "componentType" : 5126, "count" : 12, "type" : "VEC3", "max" : [54.90236282348633, 122.78130340576172, 52.6216926574707], "min" : [-52.47977066040039, -66.76131439208984, -55.2835807800293], "name" : "POSITION"}, {"bufferView" : 1, "byteOffset" : 12, "componentType" : 5126, "count" : 12, "type" : "VEC3", "max" : [0.9474437236785889, 0.2985120713710785, 0.7505805492401123], "min" : [-0.7516842484474182, -0.5392656326293945, -0.9466457962989807], "name" : "NORMAL"}, {"bufferView" : 1, "byteOffset" : 24, "componentType" : 5126, "count" : 12, "type" : "VEC2", "max" : [1, 2], "min" : [0.19999998807907104, 1], "name" : "TEXCOORD_0"}, {"bufferView" : 0, "byteOffset" : 24, "componentType" : 5123, "count" : 6, "type" : "SCALAR", "max" : [5], "min" : [0]}, {"bufferView" : 2, "byteOffset" : 0, "componentType" : 5126, "count" : 6, "type" : "VEC3", "max" : [54.90236282348633, 3.3380656242370605, 33.38065719604492], "min" : [-33.38065719604492, -66.76131439208984, -55.2835807800293], "name" : "POSITION"}, {"bufferView" : 2, "byteOffset" : 12, "componentType" : 5126, "count" : 6, "type" : "VEC3", "max" : [0.7481070756912231, -0.5399374961853027, 0.38576164841651917], "min" : [-0.3902336359024048, -0.5406982898712158, -0.7452328205108643], "name" : "NORMAL"}, {"bufferView" : 2, "byteOffset" : 24, "componentType" : 5126, "count" : 6, "type" : "VEC2", "max" : [0.7999999523162842, 1.6499574184417725], "min" : [0.4250212609767914, 1.274978756904602], "name" : "TEXCOORD_0"}, {"bufferView" : 0, "byteOffset" : 36, "componentType" : 5123, "count" : 6, "type" : "SCALAR", "max" : [5], "min" : [0]}, {"bufferView" : 3, "byteOffset" : 0, "componentType" : 5126, "count" : 6, "type" : "VEC3", "max" : [33.38065719604492, 122.78130340576172, 52.6216926574707], "min" : [-52.47977066040039, -30.68263816833496, -33.38065719604492], "name" : "POSITION"}, {"bufferView" : 3, "byteOffset" : 12, "componentType" : 5126, "count" : 6, "type" : "VEC3", "max" : [0.09707869589328766, 0.2929580509662628, 0.9511886835098267], "min" : [-0.9514527916908264, 0.29260390996932983, -0.09554754942655563], "name" : "NORMAL"}, {"bufferView" : 3, "byteOffset" : 24, "componentType" : 5126, "count" : 6, "type" : "VEC2", "max" : [0.5, 2], "min" : [0, 1], "name" : "TEXCOORD_0"}, {"bufferView" : 0, "byteOffset" : 48, "componentType" : 5123, "count" : 24, "type" : "SCALAR", "max" : [21], "min" : [0]}, {"bufferView" : 4, "byteOffset" : 0, "componentType" : 5126, "count" : 22, "type" : "VEC3", "max" : [1.2886390686035156, -2.9211692810058594, 49.96495056152344], "min" : [-0.22185897827148438, -69.68247985839844, -50.165618896484375], "name" : "POSITION"}, {"bufferView" : 4, "byteOffset" : 12, "componentType" : 5126, "count" : 22, "type" : "VEC3", "max" : [0.9998906254768372, 3.869078227580758E-06, 0.015088790096342564], "min" : [-0.9998906254768372, -4.073112691571623E-08, -0.015088790096342564], "name" : "NORMAL"}, {"bufferView" : 4, "byteOffset" : 24, "componentType" : 5126, "count" : 22, "type" : "VEC2", "max" : [0.7999999523162842, 1.7999999523162842], "min" : [0.19999998807907104, 1.2000000476837158], "name" : "TEXCOORD_0"}, {"bufferView" : 0, "byteOffset" : 96, "componentType" : 5123, "count" : 12, "type" : "SCALAR", "max" : [10], "min" : [0]}, {"bufferView" : 5, "byteOffset" : 0, "componentType" : 5126, "count" : 11, "type" : "VEC3", "max" : [86.46965026855469, 36.640525817871094, 49.96495056152344], "min" : [-0.22185897827148438, -69.68247985839844, -50.165618896484375], "name" : "POSITION"}, {"bufferView" : 5, "byteOffset" : 12, "componentType" : 5126, "count" : 11, "type" : "VEC3", "max" : [0.6056362390518188, 0.8126083016395569, 0.6513002514839172], "min" : [-0.582751452922821, -0.48178738355636597, -0.6333202123641968], "name" : "NORMAL"}, {"bufferView" : 5, "byteOffset" : 24, "componentType" : 5126, "count" : 11, "type" : "VEC2", "max" : [1, 2], "min" : [0, 1], "name" : "TEXCOORD_0"}, {"bufferView" : 0, "byteOffset" : 120, "componentType" : 5123, "count" : 12, "type" : "SCALAR", "max" : [10], "min" : [0]}, {"bufferView" : 6, "byteOffset" : 0, "componentType" : 5126, "count" : 11, "type" : "VEC3", "max" : [1.2886390686035156, 36.640525817871094, 49.96495056152344], "min" : [-85.41224670410156, -69.68247985839844, -50.165618896484375], "name" : "POSITION"}, {"bufferView" : 6, "byteOffset" : 12, "componentType" : 5126, "count" : 11, "type" : "VEC3", "max" : [0.5827822089195251, 0.8126094937324524, 0.6351458430290222], "min" : [-0.6026533246040344, -0.4831227660179138, -0.6495659351348877], "name" : "NORMAL"}, {"bufferView" : 6, "byteOffset" : 24, "componentType" : 5126, "count" : 11, "type" : "VEC2", "max" : [1, 2], "min" : [0, 1], "name" : "TEXCOORD_0"}, {"bufferView" : 0, "byteOffset" : 144, "componentType" : 5123, "count" : 12, "type" : "SCALAR", "max" : [11], "min" : [0]}, {"bufferView" : 7, "byteOffset" : 0, "componentType" : 5126, "count" : 12, "type" : "VEC3", "max" : [54.90236282348633, 122.78130340576172, 52.6216926574707], "min" : [-52.47977066040039, -66.76131439208984, -55.2835807800293], "name" : "POSITION"}, {"bufferView" : 7, "byteOffset" : 12, "componentType" : 5126, "count" : 12, "type" : "VEC3", "max" : [0.9474437236785889, 0.2985120713710785, 0.7505805492401123], "min" : [-0.7516842484474182, -0.5392656326293945, -0.9466457962989807], "name" : "NORMAL"}, {"bufferView" : 7, "byteOffset" : 24, "componentType" : 5126, "count" : 12, "type" : "VEC2", "max" : [1, 2], "min" : [0.19999998807907104, 1], "name" : "TEXCOORD_0"}, {"bufferView" : 0, "byteOffset" : 168, "componentType" : 5123, "count" : 6, "type" : "SCALAR", "max" : [5], "min" : [0]}, {"bufferView" : 8, "byteOffset" : 0, "componentType" : 5126, "count" : 6, "type" : "VEC3", "max" : [54.90236282348633, 3.3380656242370605, 33.38065719604492], "min" : [-33.38065719604492, -66.76131439208984, -55.2835807800293], "name" : "POSITION"}, {"bufferView" : 8, "byteOffset" : 12, "componentType" : 5126, "count" : 6, "type" : "VEC3", "max" : [0.7481070756912231, -0.5399374961853027, 0.38576164841651917], "min" : [-0.3902336359024048, -0.5406982898712158, -0.7452328205108643], "name" : "NORMAL"}, {"bufferView" : 8, "byteOffset" : 24, "componentType" : 5126, "count" : 6, "type" : "VEC2", "max" : [0.7999999523162842, 1.6499574184417725], "min" : [0.4250212609767914, 1.274978756904602], "name" : "TEXCOORD_0"}, {"bufferView" : 0, "byteOffset" : 180, "componentType" : 5123, "count" : 6, "type" : "SCALAR", "max" : [5], "min" : [0]}, {"bufferView" : 9, "byteOffset" : 0, "componentType" : 5126, "count" : 6, "type" : "VEC3", "max" : [33.38065719604492, 122.78130340576172, 52.6216926574707], "min" : [-52.47977066040039, -30.68263816833496, -33.38065719604492], "name" : "POSITION"}, {"bufferView" : 9, "byteOffset" : 12, "componentType" : 5126, "count" : 6, "type" : "VEC3", "max" : [0.09707869589328766, 0.2929580509662628, 0.9511886835098267], "min" : [-0.9514527916908264, 0.29260390996932983, -0.09554754942655563], "name" : "NORMAL"}, {"bufferView" : 9, "byteOffset" : 24, "componentType" : 5126, "count" : 6, "type" : "VEC2", "max" : [0.5, 2], "min" : [0, 1], "name" : "TEXCOORD_0"}, {"bufferView" : 0, "byteOffset" : 192, "componentType" : 5123, "count" : 24, "type" : "SCALAR", "max" : [21], "min" : [0]}, {"bufferView" : 10, "byteOffset" : 0, "componentType" : 5126, "count" : 22, "type" : "VEC3", "max" : [1.2886390686035156, -2.9211692810058594, 49.96495056152344], "min" : [-0.22185897827148438, -69.68247985839844, -50.165618896484375], "name" : "POSITION"}, {"bufferView" : 10, "byteOffset" : 12, "componentType" : 5126, "count" : 22, "type" : "VEC3", "max" : [0.9998906254768372, 3.869078227580758E-06, 0.015088790096342564], "min" : [-0.9998906254768372, -4.073112691571623E-08, -0.015088790096342564], "name" : "NORMAL"}, {"bufferView" : 10, "byteOffset" : 24, "componentType" : 5126, "count" : 22, "type" : "VEC2", "max" : [0.7999999523162842, 1.7999999523162842], "min" : [0.19999998807907104, 1.2000000476837158], "name" : "TEXCOORD_0"}, {"bufferView" : 0, "byteOffset" : 240, "componentType" : 5123, "count" : 12, "type" : "SCALAR", "max" : [10], "min" : [0]}, {"bufferView" : 11, "byteOffset" : 0, "componentType" : 5126, "count" : 11, "type" : "VEC3", "max" : [86.46965026855469, 36.640525817871094, 49.96495056152344], "min" : [-0.22185897827148438, -69.68247985839844, -50.165618896484375], "name" : "POSITION"}, {"bufferView" : 11, "byteOffset" : 12, "componentType" : 5126, "count" : 11, "type" : "VEC3", "max" : [0.6056362390518188, 0.8126083016395569, 0.6513002514839172], "min" : [-0.582751452922821, -0.48178738355636597, -0.6333202123641968], "name" : "NORMAL"}, {"bufferView" : 11, "byteOffset" : 24, "componentType" : 5126, "count" : 11, "type" : "VEC2", "max" : [1, 2], "min" : [0, 1], "name" : "TEXCOORD_0"}, {"bufferView" : 0, "byteOffset" : 264, "componentType" : 5123, "count" : 12, "type" : "SCALAR", "max" : [10], "min" : [0]}, {"bufferView" : 12, "byteOffset" : 0, "componentType" : 5126, "count" : 11, "type" : "VEC3", "max" : [1.2886390686035156, 36.640525817871094, 49.96495056152344], "min" : [-85.41224670410156, -69.68247985839844, -50.165618896484375], "name" : "POSITION"}, {"bufferView" : 12, "byteOffset" : 12, "componentType" : 5126, "count" : 11, "type" : "VEC3", "max" : [0.5827822089195251, 0.8126094937324524, 0.6351458430290222], "min" : [-0.6026533246040344, -0.4831227660179138, -0.6495659351348877], "name" : "NORMAL"}, {"bufferView" : 12, "byteOffset" : 24, "componentType" : 5126, "count" : 11, "type" : "VEC2", "max" : [1, 2], "min" : [0, 1], "name" : "TEXCOORD_0"}], "asset" : {"generator" : "Aspose.3D 24.1.0", "version" : "2.0"}, "buffers" : [{"uri" : "buffer.bin", "byteLength" : 4948}], "bufferViews" : [{"buffer" : 0, "byteOffset" : 0, "byteLength" : 288, "target" : 34963}, {"buffer" : 0, "byteOffset" : 292, "byteLength" : 384, "byteStride" : 32, "target" : 34962}, {"buffer" : 0, "byteOffset" : 680, "byteLength" : 192, "byteStride" : 32, "target" : 34962}, {"buffer" : 0, "byteOffset" : 876, "byteLength" : 192, "byteStride" : 32, "target" : 34962}, {"buffer" : 0, "byteOffset" : 1072, "byteLength" : 768, "byteStride" : 32, "target" : 34962}, {"buffer" : 0, "byteOffset" : 1844, "byteLength" : 384, "byteStride" : 32, "target" : 34962}, {"buffer" : 0, "byteOffset" : 2232, "byteLength" : 384, "byteStride" : 32, "target" : 34962}, {"buffer" : 0, "byteOffset" : 2620, "byteLength" : 384, "byteStride" : 32, "target" : 34962}, {"buffer" : 0, "byteOffset" : 3008, "byteLength" : 192, "byteStride" : 32, "target" : 34962}, {"buffer" : 0, "byteOffset" : 3204, "byteLength" : 192, "byteStride" : 32, "target" : 34962}, {"buffer" : 0, "byteOffset" : 3400, "byteLength" : 768, "byteStride" : 32, "target" : 34962}, {"buffer" : 0, "byteOffset" : 4172, "byteLength" : 384, "byteStride" : 32, "target" : 34962}, {"buffer" : 0, "byteOffset" : 4560, "byteLength" : 384, "byteStride" : 32, "target" : 34962}], "materials" : [{"name" : "lambert3", "pbrMetallicRoughness" : {"baseColorFactor" : [0.5632000000000003, 0.35289999999999994, 1, 0.6021341463414634], "metallicFactor" : 0, "roughnessFactor" : 0.6}, "emissiveFactor" : [0, 0, 0], "alphaMode" : "BLEND", "doubleSided" : true}, {"name" : "lambert4", "pbrMetallicRoughness" : {"baseColorFactor" : [0.2953043464009595, 0.320771201808987, 1, 0.6265243902439024], "metallicFactor" : 0, "roughnessFactor" : 0.6}, "emissiveFactor" : [0, 0, 0], "alphaMode" : "BLEND", "doubleSided" : true}, {"name" : "lambert2", "pbrMetallicRoughness" : {"baseColorFactor" : [0.41169999999999984, 1, 0.8867999999999997, 0.6204268292682927], "metallicFactor" : 0, "roughnessFactor" : 0.6}, "emissiveFactor" : [0, 0, 0], "alphaMode" : "BLEND", "doubleSided" : true}, {"name" : "Default_Material", "pbrMetallicRoughness" : {"baseColorFactor" : [0.5, 0.5, 0.5, 1], "metallicFactor" : 0, "roughnessFactor" : 0.6}, "emissiveFactor" : [0, 0, 0], "alphaMode" : "OPAQUE", "doubleSided" : true}, {"name" : "lambert4", "pbrMetallicRoughness" : {"baseColorFactor" : [0.2953043464009595, 0.320771201808987, 1, 0.6265243902439024], "metallicFactor" : 0, "roughnessFactor" : 0.6}, "emissiveFactor" : [0, 0, 0], "alphaMode" : "BLEND", "doubleSided" : true}, {"name" : "lambert3", "pbrMetallicRoughness" : {"baseColorFactor" : [0.5632000000000003, 0.35289999999999994, 1, 0.6021341463414634], "metallicFactor" : 0, "roughnessFactor" : 0.6}, "emissiveFactor" : [0, 0, 0], "alphaMode" : "BLEND", "doubleSided" : true}, {"name" : "lambert3", "pbrMetallicRoughness" : {"baseColorFactor" : [0.5632000000000003, 0.35289999999999994, 1, 0.6021341463414634], "metallicFactor" : 0, "roughnessFactor" : 0.6}, "emissiveFactor" : [0, 0, 0], "alphaMode" : "BLEND", "doubleSided" : true}, {"name" : "lambert4", "pbrMetallicRoughness" : {"baseColorFactor" : [0.2953043464009595, 0.320771201808987, 1, 0.6265243902439024], "metallicFactor" : 0, "roughnessFactor" : 0.6}, "emissiveFactor" : [0, 0, 0], "alphaMode" : "BLEND", "doubleSided" : true}, {"name" : "lambert2", "pbrMetallicRoughness" : {"baseColorFactor" : [0.41169999999999984, 1, 0.8867999999999997, 0.6204268292682927], "metallicFactor" : 0, "roughnessFactor" : 0.6}, "emissiveFactor" : [0, 0, 0], "alphaMode" : "BLEND", "doubleSided" : true}, {"name" : "Default_Material", "pbrMetallicRoughness" : {"baseColorFactor" : [0.5, 0.5, 0.5, 1], "metallicFactor" : 0, "roughnessFactor" : 0.6}, "emissiveFactor" : [0, 0, 0], "alphaMode" : "OPAQUE", "doubleSided" : true}, {"name" : "lambert4", "pbrMetallicRoughness" : {"baseColorFactor" : [0.2953043464009595, 0.320771201808987, 1, 0.6265243902439024], "metallicFactor" : 0, "roughnessFactor" : 0.6}, "emissiveFactor" : [0, 0, 0], "alphaMode" : "BLEND", "doubleSided" : true}, {"name" : "lambert3", "pbrMetallicRoughness" : {"baseColorFactor" : [0.5632000000000003, 0.35289999999999994, 1, 0.6021341463414634], "metallicFactor" : 0, "roughnessFactor" : 0.6}, "emissiveFactor" : [0, 0, 0], "alphaMode" : "BLEND", "doubleSided" : true}], "meshes" : [{"primitives" : [{"attributes" : {"POSITION" : 1, "NORMAL" : 2, "TEXCOORD_0" : 3}, "indices" : 0, "material" : 0, "mode" : 4}]}, {"primitives" : [{"attributes" : {"POSITION" : 5, "NORMAL" : 6, "TEXCOORD_0" : 7}, "indices" : 4, "material" : 1, "mode" : 4}]}, {"primitives" : [{"attributes" : {"POSITION" : 9, "NORMAL" : 10, "TEXCOORD_0" : 11}, "indices" : 8, "material" : 2, "mode" : 4}]}, {"primitives" : [{"attributes" : {"POSITION" : 13, "NORMAL" : 14, "TEXCOORD_0" : 15}, "indices" : 12, "material" : 3, "mode" : 4}]}, {"primitives" : [{"attributes" : {"POSITION" : 17, "NORMAL" : 18, "TEXCOORD_0" : 19}, "indices" : 16, "material" : 4, "mode" : 4}]}, {"primitives" : [{"attributes" : {"POSITION" : 21, "NORMAL" : 22, "TEXCOORD_0" : 23}, "indices" : 20, "material" : 5, "mode" : 4}]}, {"primitives" : [{"attributes" : {"POSITION" : 25, "NORMAL" : 26, "TEXCOORD_0" : 27}, "indices" : 24, "material" : 6, "mode" : 4}]}, {"primitives" : [{"attributes" : {"POSITION" : 29, "NORMAL" : 30, "TEXCOORD_0" : 31}, "indices" : 28, "material" : 7, "mode" : 4}]}, {"primitives" : [{"attributes" : {"POSITION" : 33, "NORMAL" : 34, "TEXCOORD_0" : 35}, "indices" : 32, "material" : 8, "mode" : 4}]}, {"primitives" : [{"attributes" : {"POSITION" : 37, "NORMAL" : 38, "TEXCOORD_0" : 39}, "indices" : 36, "material" : 9, "mode" : 4}]}, {"primitives" : [{"attributes" : {"POSITION" : 41, "NORMAL" : 42, "TEXCOORD_0" : 43}, "indices" : 40, "material" : 10, "mode" : 4}]}, {"primitives" : [{"attributes" : {"POSITION" : 45, "NORMAL" : 46, "TEXCOORD_0" : 47}, "indices" : 44, "material" : 11, "mode" : 4}]}], "nodes" : [{"mesh" : 0, "name" : "Pyramid_3_lambert3_0"}, {"mesh" : 1, "name" : "Pyramid_3_lambert4_0"}, {"mesh" : 2, "name" : "Pyramid_3_lambert2_0"}, {"children" : [0, 1, 2], "matrix" : [0.7071066994739947, 3.0814882643362985E-32, -0.707106949395552, 0, -6.478644498482652E-32, 1, -2.1207617528441253E-32, 0, 0.707106949395552, 6.080698564047036E-32, 0.7071066994739947, 0, 0.21673527359962463, 73.80674743652344, 0.9291427731513977, 1], "name" : "Pyramid_3"}, {"children" : [3], "matrix" : [-0.015083625699453762, 1.84720716570829E-18, 0.9998862707134535, 0, 2.449154365854559E-16, 1, 1.84720716570829E-18, 0, -1.1446125365060102, 2.803651648297241E-16, -0.017266870820458316, 0, 0, 0, 0, 1], "name" : "eth"}, {"mesh" : 3, "name" : "Pyramid_Default_Material_0"}, {"mesh" : 4, "name" : "Pyramid_lambert4_0"}, {"mesh" : 5, "name" : "Pyramid_lambert3_0"}, {"children" : [5, 6, 7], "name" : "Pyramid"}, {"children" : [4, 8], "name" : "RootNode"}, {"children" : [9], "name" : "Object_2"}, {"children" : [10], "matrix" : [0.009999999776482582, 0, 0, 0, 0, 0, 0.009999999776482582, 0, 0, -0.009999999776482582, 0, 0, 0, 0, 0, 1], "name" : "161ee2e266e94c7791940d78a5a83d04.fbx"}, {"children" : [11], "matrix" : [1.106614112854004, 0, 0, 0, 0, 2.457176934931313E-16, -1.106614112854004, 0, 0, 1.106614112854004, 2.457176934931313E-16, 0, 0, 0, 0, 1], "name" : "Sketchfab_model"}, {"children" : [12], "name" : "scene.gltf"}, {"mesh" : 6, "name" : "Pyramid_3_lambert3_0"}, {"mesh" : 7, "name" : "Pyramid_3_lambert4_0"}, {"mesh" : 8, "name" : "Pyramid_3_lambert2_0"}, {"children" : [14, 15, 16], "matrix" : [0.7071066994739947, 3.0814882643362985E-32, -0.707106949395552, 0, -6.478644498482652E-32, 1, -2.1207617528441253E-32, 0, 0.707106949395552, 6.080698564047036E-32, 0.7071066994739947, 0, 0.21673527359962463, 73.80674743652344, 0.9291427731513977, 1], "name" : "Pyramid_3"}, {"children" : [17], "matrix" : [-0.015083625699453762, 1.84720716570829E-18, 0.9998862707134535, 0, 2.449154365854559E-16, 1, 1.84720716570829E-18, 0, -1.1446125365060102, 2.803651648297241E-16, -0.017266870820458316, 0, 0, 0, 0, 1], "name" : "eth"}, {"mesh" : 9, "name" : "Pyramid_Default_Material_0"}, {"mesh" : 10, "name" : "Pyramid_lambert4_0"}, {"mesh" : 11, "name" : "Pyramid_lambert3_0"}, {"children" : [19, 20, 21], "name" : "Pyramid"}, {"children" : [18, 22], "name" : "RootNode"}, {"children" : [23], "name" : "Object_2"}, {"children" : [24], "matrix" : [0.009999999776482582, 0, 0, 0, 0, 0, 0.009999999776482582, 0, 0, -0.009999999776482582, 0, 0, 0, 0, 0, 1], "name" : "161ee2e266e94c7791940d78a5a83d04.fbx"}, {"children" : [25], "matrix" : [1.106614112854004, 0, 0, 0, 0, 2.457176934931313E-16, -1.106614112854004, 0, 0, 1.106614112854004, 2.457176934931313E-16, 0, 0, 0, 0, 1], "name" : "Sketchfab_model"}, {"children" : [26], "name" : "f.bin"}], "scene" : 0, "scenes" : [{"nodes" : [13, 27]}]}