<svg width="56" height="56" viewBox="0 0 56 56" fill="none" xmlns="http://www.w3.org/2000/svg">
<g filter="url(#filter0_i_357_1023)">
<g clip-path="url(#clip0_357_1023)">
<rect width="56" height="56" rx="15" fill="#5F14FF"/>
<g filter="url(#filter1_f_357_1023)">
<ellipse cx="40.6258" cy="82.0669" rx="50.9396" ry="74.842" transform="rotate(47.6434 40.6258 82.0669)" fill="#00F0FF"/>
</g>
<g filter="url(#filter2_f_357_1023)">
<path d="M38.3372 15.2776C21.4023 30.7177 -0.759643 33.9844 -11.163 22.574C-21.5663 11.1635 -16.2714 -10.6032 0.663408 -26.0433C17.5982 -41.4834 39.7602 -44.7501 50.1635 -33.3396C60.5668 -21.9292 55.272 -0.162529 38.3372 15.2776Z" fill="#EB00FF"/>
</g>
<g filter="url(#filter3_d_357_1023)">
<path d="M31.5861 31.05L17.7361 9.8H19.5361L33.4361 31.05H31.5861ZM23.6861 31.05L9.83613 9.8H11.6361L25.4861 31.05H23.6861ZM27.6861 31.05L13.7861 9.8H15.5861L29.4361 31.05H27.6861ZM30.4861 23.2L29.5361 21.8L37.5361 9.8H39.3361L30.4861 23.2ZM32.4861 26.3L31.5861 24.85L41.4861 9.8H43.2861L32.4861 26.3ZM34.4861 29.35L33.5361 27.95L45.4361 9.8H47.2361L34.4861 29.35ZM31.0861 50V32.9H32.5861V50H31.0861ZM24.4861 50V32.9H25.9861V50H24.4861ZM27.7861 50V32.9H29.2861V50H27.7861Z" fill="white"/>
</g>
<g style="mix-blend-mode:color-dodge" filter="url(#filter4_f_357_1023)">
<path d="M33.3206 30.47L13.9306 0.719999H16.4506L35.9106 30.47H33.3206ZM22.2606 30.47L2.87059 0.719999H5.39059L24.7806 30.47H22.2606ZM27.8606 30.47L8.40059 0.719999H10.9206L30.3106 30.47H27.8606ZM31.7806 19.48L30.4506 17.52L41.6506 0.719999H44.1706L31.7806 19.48ZM34.5806 23.82L33.3206 21.79L47.1806 0.719999H49.7006L34.5806 23.82ZM37.3806 28.09L36.0506 26.13L52.7106 0.719999H55.2306L37.3806 28.09ZM32.6206 57V33.06H34.7206V57H32.6206ZM23.3806 57V33.06H25.4806V57H23.3806ZM28.0006 57V33.06H30.1006V57H28.0006Z" fill="#AC9AC8"/>
</g>
</g>
<rect x="0.239316" y="0.239316" width="55.5214" height="55.5214" rx="14.7607" stroke="url(#paint0_linear_357_1023)" stroke-width="0.478632"/>
</g>
<defs>
<filter id="filter0_i_357_1023" x="0" y="0" width="56" height="57.4359" filterUnits="userSpaceOnUse" color-interpolation-filters="sRGB">
<feFlood flood-opacity="0" result="BackgroundImageFix"/>
<feBlend mode="normal" in="SourceGraphic" in2="BackgroundImageFix" result="shape"/>
<feColorMatrix in="SourceAlpha" type="matrix" values="0 0 0 0 0 0 0 0 0 0 0 0 0 0 0 0 0 0 127 0" result="hardAlpha"/>
<feOffset dy="1.4359"/>
<feGaussianBlur stdDeviation="2.39316"/>
<feComposite in2="hardAlpha" operator="arithmetic" k2="-1" k3="1"/>
<feColorMatrix type="matrix" values="0 0 0 0 1 0 0 0 0 1 0 0 0 0 1 0 0 0 0.32 0"/>
<feBlend mode="normal" in2="shape" result="effect1_innerShadow_357_1023"/>
</filter>
<filter id="filter1_f_357_1023" x="-60.3696" y="-16.7595" width="201.991" height="197.653" filterUnits="userSpaceOnUse" color-interpolation-filters="sRGB">
<feFlood flood-opacity="0" result="BackgroundImageFix"/>
<feBlend mode="normal" in="SourceGraphic" in2="BackgroundImageFix" result="shape"/>
<feGaussianBlur stdDeviation="17.9487" result="effect1_foregroundBlur_357_1023"/>
</filter>
<filter id="filter2_f_357_1023" x="-52.3891" y="-76.0451" width="143.779" height="141.325" filterUnits="userSpaceOnUse" color-interpolation-filters="sRGB">
<feFlood flood-opacity="0" result="BackgroundImageFix"/>
<feBlend mode="normal" in="SourceGraphic" in2="BackgroundImageFix" result="shape"/>
<feGaussianBlur stdDeviation="17.9487" result="effect1_foregroundBlur_357_1023"/>
</filter>
<filter id="filter3_d_357_1023" x="5.83594" y="6.80005" width="45.4004" height="48.2" filterUnits="userSpaceOnUse" color-interpolation-filters="sRGB">
<feFlood flood-opacity="0" result="BackgroundImageFix"/>
<feColorMatrix in="SourceAlpha" type="matrix" values="0 0 0 0 0 0 0 0 0 0 0 0 0 0 0 0 0 0 127 0" result="hardAlpha"/>
<feOffset dy="1"/>
<feGaussianBlur stdDeviation="2"/>
<feComposite in2="hardAlpha" operator="out"/>
<feColorMatrix type="matrix" values="0 0 0 0 0.260711 0 0 0 0 0 0 0 0 0 0.713333 0 0 0 0.38 0"/>
<feBlend mode="normal" in2="BackgroundImageFix" result="effect1_dropShadow_357_1023"/>
<feBlend mode="normal" in="SourceGraphic" in2="effect1_dropShadow_357_1023" result="shape"/>
</filter>
<filter id="filter4_f_357_1023" x="-2.12939" y="-4.28003" width="62.3599" height="66.28" filterUnits="userSpaceOnUse" color-interpolation-filters="sRGB">
<feFlood flood-opacity="0" result="BackgroundImageFix"/>
<feBlend mode="normal" in="SourceGraphic" in2="BackgroundImageFix" result="shape"/>
<feGaussianBlur stdDeviation="2.5" result="effect1_foregroundBlur_357_1023"/>
</filter>
<linearGradient id="paint0_linear_357_1023" x1="28" y1="0" x2="28" y2="56" gradientUnits="userSpaceOnUse">
<stop stop-color="white" stop-opacity="0"/>
<stop offset="1" stop-color="white" stop-opacity="0.27"/>
</linearGradient>
<clipPath id="clip0_357_1023">
<rect width="56" height="56" rx="15" fill="white"/>
</clipPath>
</defs>
</svg>
