<svg width="26" height="22" viewBox="0 0 26 22" fill="none" xmlns="http://www.w3.org/2000/svg">
<path d="M2.03271 9.7039C2.03271 9.7039 13.0896 4.99993 16.9243 3.34354C18.3944 2.68104 23.3795 0.560863 23.3795 0.560863C23.3795 0.560863 25.6804 -0.366636 25.4886 1.88595C25.4247 2.81354 24.9134 6.05992 24.4022 9.5714C23.6352 14.5405 22.8043 19.9732 22.8043 19.9732C22.8043 19.9732 22.6765 21.4971 21.59 21.7621C20.5035 22.0271 18.7139 20.8346 18.3944 20.5695C18.1386 20.3708 13.6009 17.3893 11.9392 15.9318C11.4918 15.5343 10.9805 14.7393 12.003 13.8117C14.3039 11.6253 17.0521 8.9089 18.7139 7.18631C19.4809 6.39122 20.2478 4.53613 17.0521 6.78872C12.5144 10.0352 8.0405 13.0829 8.0405 13.0829C8.0405 13.0829 7.01787 13.7454 5.10051 13.1491C3.18307 12.5529 0.946123 11.7578 0.946123 11.7578C0.946123 11.7578 -0.587691 10.764 2.03271 9.7039Z" fill="white"/>
</svg>
